<?xml version="1.0" encoding="UTF-8"?>
<svg id="Layer_1" data-name="Layer 1" xmlns="http://www.w3.org/2000/svg" viewBox="0 0 154 154">
  <defs>
    <style>
      .cls-1 {
        fill: linen;
      }

      .cls-2 {
        fill: #615192;
      }
    </style>
  </defs>
  <circle class="cls-2" cx="77.27" cy="76.79" r="49.07"/>
  <path class="cls-1" d="m74.77,81.44c0,13.08,3.84,20.05,5.09,23.26h1.25v1.41h-23.42v-1.41h1.1c1.57-3.52,5.4-13.31,5.4-29.92s-4.46-24.43-5.4-26h-1.1v-1.41h25.84c2.98,0,14.88.16,14.88,14.41,0,11.98-6.03,15.82-20.91,15.82h-2.74v3.84Zm1.64-5.4c8.38,0,8.69-5.17,8.69-13.94,0-6.34-1.1-13.31-5.4-13.31-4.93,0-4.93,17.78-4.93,23.26v3.99h1.64Z"/>
  <path class="cls-1" d="m99.25,100.13c-3.19.81-3.75,1.47-4.44,5.2-.69-3.74-1.25-4.39-4.44-5.2,3.19-.81,3.75-1.47,4.44-5.2.69,3.74,1.25,4.39,4.44,5.2Z"/>
</svg>