<svg width="35" height="30" viewBox="0 0 35 30" fill="none" xmlns="http://www.w3.org/2000/svg">
<path d="M8.73418 17.3997C8.73418 24.0801 10.6977 27.639 11.3374 29.2801H11.979V30H0V29.2801H0.560182C1.36072 27.4803 3.32426 22.4797 3.32426 13.9995C3.32426 5.51929 1.04089 1.51916 0.560182 0.719906H0V0H13.2215C14.7431 0 20.8333 0.0793445 20.8333 7.3597C20.8333 13.4789 17.7475 15.4393 10.1356 15.4393H8.73418V17.3997ZM9.57542 14.64C13.863 14.64 14.022 12.0004 14.022 7.52032C14.022 4.28074 13.4618 0.719906 11.2579 0.719906C8.73418 0.719906 8.73418 9.80002 8.73418 12.6003V14.64H9.57542Z" fill="#312B44"/>
<path d="M35 22C30.6931 23.2469 29.9361 24.2549 29 30C28.0639 24.2549 27.3069 23.2469 23 22C27.3069 20.7531 28.0639 19.7451 29 14C29.9361 19.7451 30.6931 20.7531 35 22Z" fill="#312B44"/>
</svg>
