<?xml version="1.0" encoding="UTF-8"?>
<svg id="Layer_1" data-name="Layer 1" xmlns="http://www.w3.org/2000/svg" viewBox="0 0 334 334">
  <defs>
    <style>
      .cls-1 {
        fill: #fff;
      }
    </style>
  </defs>
  <circle class="cls-1" cx="167.16" cy="165.5" r="129.5"/>
  <path d="m160.56,177.78c0,34.52,10.13,52.91,13.43,61.39h3.31v3.72h-61.8v-3.72h2.89c4.13-9.3,14.26-35.14,14.26-78.96s-11.78-64.49-14.26-68.62h-2.89v-3.72h68.21c7.85,0,39.27.41,39.27,38.03,0,31.62-15.92,41.75-55.19,41.75h-7.23v10.13Zm4.34-14.26c22.12,0,22.94-13.64,22.94-36.79,0-16.74-2.89-35.14-14.26-35.14-13.02,0-13.02,46.92-13.02,61.39v10.54h4.34Z"/>
  <path d="m225.16,227.09c-8.42,2.14-9.9,3.87-11.73,13.73-1.83-9.86-3.31-11.59-11.73-13.73,8.42-2.14,9.9-3.87,11.73-13.73,1.83,9.86,3.31,11.59,11.73,13.73Z"/>
</svg>