<?xml version="1.0" encoding="UTF-8"?>
<svg id="Layer_1" data-name="Layer 1" xmlns="http://www.w3.org/2000/svg" viewBox="0 0 334 334">
  <defs>
    <style>
      .cls-1 {
        fill: linen;
      }

      .cls-2 {
        fill: #615192;
      }
    </style>
  </defs>
  <circle class="cls-1" cx="167.44" cy="167.45" r="129.56"/>
  <path class="cls-2" d="m160.83,179.74c0,34.53,10.13,52.94,13.44,61.42h3.31v3.72h-61.83v-3.72h2.9c4.14-9.31,14.27-35.15,14.27-78.99s-11.79-64.52-14.27-68.65h-2.9v-3.72h68.24c7.86,0,39.29.41,39.29,38.05,0,31.64-15.92,41.77-55.21,41.77h-7.24v10.13Zm4.34-14.27c22.13,0,22.95-13.65,22.95-36.81,0-16.75-2.9-35.15-14.27-35.15-13.03,0-13.03,46.94-13.03,61.42v10.55h4.34Z"/>
  <path class="cls-2" d="m225.47,229.07c-8.42,2.14-9.91,3.88-11.73,13.74-1.83-9.87-3.31-11.6-11.73-13.74,8.42-2.14,9.91-3.88,11.73-13.74,1.83,9.87,3.31,11.6,11.73,13.74Z"/>
</svg>